<svg width="360" height="158" viewBox="0 0 360 158" fill="none" xmlns="http://www.w3.org/2000/svg">
<path fill-rule="evenodd" clip-rule="evenodd" d="M360 125.041L344 107.674C332 90.3071 312 77.0533 288 84C264 90.9467 237 123.473 213 120C189 116.527 168 107.674 144 107.674C120 107.674 96 118.187 72 142.5C48 166.813 24 155.973 12 152.5L0 145.881V-6.10352e-05L12 -6.10352e-05C24 -6.10352e-05 48 -6.10352e-05 72 -6.10352e-05C96 -6.10352e-05 120 -6.10352e-05 144 -6.10352e-05C168 -6.10352e-05 192 -6.10352e-05 216 -6.10352e-05C240 -6.10352e-05 264 -6.10352e-05 288 -6.10352e-05C312 -6.10352e-05 336 -6.10352e-05 348 -6.10352e-05H360V125.041Z" fill="#E6F4FE"/>
</svg>
