<svg width="1131" height="1134" xmlns="http://www.w3.org/2000/svg" xmlns:xlink="http://www.w3.org/1999/xlink" xml:space="preserve" overflow="hidden"><g transform="translate(-1067 -94)"><path d="M1354.64 176.908C1357.47 173.44 1361.02 170.469 1365.22 168.244 1382.02 159.344 1402.86 165.752 1411.76 182.557 1420.66 199.362 1414.25 220.201 1397.45 229.101 1384.85 235.777 1369.97 233.841 1359.57 225.366L1358.97 224.629 1357.38 226.831C1333.13 267.499 1330.07 319.474 1353.85 364.376L1358.92 372.414 1370.63 362.461C1506.15 264.499 1737.44 331.745 1785.17 311.626 1836.09 290.165 1803.14 214.327 1892.77 210.119 1948.79 207.489 2056.92 236.584 2147.5 305.108L2197.76 349.751 2197.76 1227.46 1279.15 1227.46 1268.67 1208.68C1217.39 1104.43 1187.88 1012.83 1188.35 952.415 1188.83 892 1255.53 910.578 1271.52 846.195 1286.52 785.836 1223.97 546.258 1322.88 410.1L1332.36 399 1318.94 378.848C1291.76 327.531 1299.65 266.977 1334.15 224.619L1349.31 209.385 1347.02 201.677C1346.25 192.766 1348.99 183.844 1354.64 176.908Z" fill="#72AAD8" fill-rule="evenodd"/><path d="M2010.39 493.251C2076.63 491.479 2136.89 499.113 2191.07 514.633L2198 517.036 2198 1227 1496.77 1227 1490.15 1209.1C1473.52 1156.53 1463.63 1098.98 1461.46 1036.94 1449.9 706.105 1657.11 502.7 2010.39 493.251Z" fill="#E6F4FE" fill-rule="evenodd"/><path d="M1960.55 358.354C1937.42 362.474 1952.17 396.018 1958.36 416.027 1964.56 436.036 1958.18 469.581 1979.13 468.992 2000.08 468.404 1995.34 423.874 1992.25 405.434 1989.15 386.995 1983.68 354.235 1960.55 358.354Z" fill="#1B1C27" fill-rule="evenodd"/><path d="M2021.28 338.358C1998.64 342.514 2013.08 376.361 2019.14 396.55 2025.2 416.74 2018.97 450.586 2039.47 449.992 2059.97 449.399 2055.34 404.467 2052.3 385.862 2049.27 367.256 2043.92 334.201 2021.28 338.358Z" fill="#1B1C27" fill-rule="evenodd"/><path d="M2081.28 327.358C2058.64 331.514 2073.08 365.361 2079.14 385.55 2085.2 405.74 2078.97 439.586 2099.47 438.992 2119.97 438.399 2115.34 393.467 2112.3 374.862 2109.27 356.256 2103.92 323.201 2081.28 327.358Z" fill="#1B1C27" fill-rule="evenodd"/><path d="M1412.75 1014.78C1405.8 992.568 1374.21 1011.25 1355.05 1019.83 1335.9 1028.41 1301.71 1026.33 1304.88 1046.84 1308.04 1067.35 1351.8 1057.14 1369.77 1051.8 1387.75 1046.46 1419.7 1037 1412.75 1014.78Z" fill="#1B1C27" fill-rule="evenodd" fill-opacity="0.8"/><path d="M1412.75 1087.65C1405.8 1065.43 1374.21 1084.12 1355.05 1092.7 1335.9 1101.28 1301.71 1099.2 1304.88 1119.71 1308.04 1140.22 1351.8 1130.01 1369.77 1124.67 1387.75 1119.32 1419.7 1109.87 1412.75 1087.65Z" fill="#1B1C27" fill-rule="evenodd" fill-opacity="0.8"/><path d="M1414.68 1147.68C1407.73 1125.46 1376.15 1144.14 1356.99 1152.73 1337.83 1161.31 1303.65 1159.23 1306.81 1179.74 1309.98 1200.25 1353.73 1190.04 1371.71 1184.69 1389.69 1179.35 1421.63 1169.89 1414.68 1147.68Z" fill="#1B1C27" fill-rule="evenodd" fill-opacity="0.8"/><path d="M1655.67 453.683C1642.76 440.772 1659.48 403.117 1693.02 369.579 1726.55 336.041 1764.21 319.319 1777.12 332.231 1790.03 345.142 1773.31 382.796 1739.77 416.335 1706.23 449.873 1668.58 466.594 1655.67 453.683Z" fill="#EBCDCD" fill-rule="evenodd" fill-opacity="0.898039"/><path d="M1290.1 833.1C1277.19 820.189 1293.91 782.534 1327.45 748.996 1360.99 715.458 1398.64 698.737 1411.55 711.648 1424.46 724.559 1407.74 762.214 1374.2 795.752 1340.66 829.29 1303.01 846.011 1290.1 833.1Z" fill="#EBCDCD" fill-rule="evenodd" fill-opacity="0.898039"/><path d="M1395 630C1395 618.954 1403.95 610 1415 610 1426.05 610 1435 618.954 1435 630 1435 641.046 1426.05 650 1415 650 1403.95 650 1395 641.046 1395 630Z" fill="#1B1C27" fill-rule="evenodd"/><path d="M1584 441C1584 429.954 1592.95 421 1604 421 1615.05 421 1624 429.954 1624 441 1624 452.046 1615.05 461 1604 461 1592.95 461 1584 452.046 1584 441Z" fill="#1B1C27" fill-rule="evenodd"/><path d="M1384.16 767.21C1387.71 789.131 1462.58 762.391 1496.97 716.942 1531.36 671.493 1534.91 643.374 1549.24 622.601 1563.57 601.827 1562.01 606.925 1582.95 592.301 1603.89 577.678 1654.5 566.767 1674.9 534.861 1709.07 495.38 1732.13 414.744 1710.73 412.065 1689.34 409.386 1679.22 490.417 1654.48 515.865 1629.75 541.314 1586.85 559.018 1562.31 564.757 1537.78 570.495 1536.86 575.086 1523.79 599.876 1510.72 624.666 1506.48 661.508 1471.52 701.103 1436.55 740.699 1380.61 745.289 1384.16 767.21Z" fill="#1B1C27" fill-rule="evenodd"/></g></svg>